<?xml version="1.0" encoding="UTF-8"?>
<svg id="Capa_2" data-name="Capa 2" xmlns="http://www.w3.org/2000/svg" viewBox="0 0 909.69 200.57">
  <defs>
    <style>
      .cls-1, .cls-2 {
        fill: #fff;
      }

      .cls-2 {
        font-family: PaytoneOne-Regular, 'Paytone One';
        font-size: 165.08px;
      }
    </style>
  </defs>
  <g id="Diseño">
    <g>
      <text class="cls-2" transform="translate(266.7 139.33)"><tspan x="0" y="0">BE JOPS</tspan></text>
      <g>
        <path class="cls-1" d="M118.33,149.96C99.66,104.57,81.1,59.13,62.57,13.68c-4.95-12.15-24.53-6.05-19.53,6.14,19.02,46.32,38,92.66,56.86,139.05,4.96,12.2,23.43,3.24,18.43-8.91h0Z"/>
        <path class="cls-1" d="M109.38,20.39c14.86,34.67,29.72,69.34,44.59,104.02,5.21,12.14,23.59,3.14,18.42-8.94-14.8-34.55-29.61-69.1-44.41-103.65-5.2-12.14-23.78-3.52-18.59,8.57h0Z"/>
        <path class="cls-1" d="M31.79,138.75c65.49-16.51,130.1-35.66,194.1-57.24,12.48-4.21,6.58-23.85-5.92-19.6-63.52,21.64-127.85,40.51-192.92,56.92-12.76,3.22-8.09,23.15,4.73,19.92h0Z"/>
        <path class="cls-1" d="M11.93,86.09c60.96-9.37,119.23-26.71,175.57-51.68,12.06-5.34,2.32-23.42-9.65-18.05C123.46,40.71,66.92,57.02,8.04,65.98c-13.05,1.99-9.1,22.1,3.89,20.1h0Z"/>
      </g>
    </g>
  </g>
</svg>