<?xml version="1.0" encoding="UTF-8"?>
<svg id="Capa_2" data-name="Capa 2" xmlns="http://www.w3.org/2000/svg" viewBox="0 0 506.25 88.54">
  <defs>
    <style>
      .cls-1 {
        fill: #61190d;
      }

      .cls-2 {
        fill: #161a1d;
      }
    </style>
  </defs>
  <g id="Diseño">
    <g>
      <g>
        <path class="cls-2" d="M177.78,74.4h-23.94V11.05h25.88c10.13,0,17.56,1.4,22.28,4.19,4.73,2.79,7.09,6.65,7.09,11.56,0,6.39-3.35,10.77-10.04,13.17,8.59,1.66,12.89,6.72,12.89,15.19,0,6.51-2.96,11.34-8.89,14.5-5.93,3.16-14.35,4.74-25.28,4.74ZM182.2,61.42c3.07,0,5.43-.61,7.09-1.84,1.66-1.23,2.49-2.95,2.49-5.16,0-2.39-.83-4.25-2.49-5.57-1.66-1.32-4.02-1.98-7.09-1.98h-7.92v14.55h7.92ZM174.38,36.09h7.27c2.45,0,4.45-.55,5.99-1.66,1.53-1.11,2.3-2.58,2.3-4.42,0-4.24-2.89-6.35-8.66-6.35h-6.91v12.43Z"/>
        <path class="cls-2" d="M219.31,74.4V11.05h44.48v14h-22.1v11.23h20.17v11.6h-20.17v12.06h22.1v14.46h-44.48Z"/>
        <path class="cls-2" d="M298.05,75.88c-2.89,0-5.71-.38-8.47-1.15s-5-1.95-6.72-3.54l4.14-12.16c.86.37,1.8.71,2.81,1.01,1.01.31,2.01.46,2.99.46,4.11,0,6.17-2.33,6.17-7V11.05h19.8v41.26c0,7.74-1.78,13.6-5.34,17.59-3.56,3.99-8.69,5.99-15.38,5.99Z"/>
        <path class="cls-2" d="M359.75,75.88c-6.69,0-12.59-1.41-17.68-4.24-5.1-2.82-9.07-6.72-11.93-11.7s-4.28-10.68-4.28-17.13,1.43-12.25,4.28-17.22,6.83-8.87,11.93-11.69c5.09-2.82,10.99-4.24,17.68-4.24s12.58,1.4,17.68,4.19c5.09,2.79,9.07,6.68,11.93,11.65s4.28,10.74,4.28,17.31-1.43,12.16-4.28,17.13-6.83,8.87-11.93,11.7c-5.1,2.82-10.99,4.24-17.68,4.24ZM359.75,59.12c3.87,0,7.04-1.5,9.53-4.51,2.49-3.01,3.73-6.97,3.73-11.88,0-3.32-.57-6.23-1.7-8.75-1.14-2.52-2.7-4.5-4.7-5.94-2-1.44-4.31-2.16-6.95-2.16-3.87,0-7.03,1.55-9.48,4.65-2.46,3.1-3.68,7.17-3.68,12.2s1.23,8.87,3.68,11.88c2.45,3.01,5.65,4.51,9.58,4.51Z"/>
        <path class="cls-2" d="M401.09,74.4V10.95h21.46c10.44,0,18.31,1.7,23.62,5.11,5.31,3.41,7.97,8.43,7.97,15.06,0,4.6-1.15,8.52-3.45,11.74-2.3,3.22-5.54,5.68-9.72,7.37-4.18,1.69-9.09,2.53-14.73,2.53h-4.79v21.64h-20.35ZM425.4,39.96c3.25,0,5.77-.67,7.55-2.03,1.78-1.35,2.67-3.38,2.67-6.08,0-2.52-.86-4.4-2.58-5.66-1.72-1.26-4.21-1.89-7.46-1.89h-4.14v15.66h3.96Z"/>
        <path class="cls-2" d="M480.01,75.88c-3.87,0-7.8-.48-11.79-1.43-3.99-.95-7.37-2.22-10.13-3.82l3.32-15.01c3.56,1.9,6.89,3.15,9.99,3.73,3.1.58,5.97.88,8.61.88,2.45,0,4.31-.4,5.57-1.2,1.26-.8,1.89-1.87,1.89-3.22,0-1.23-.71-2.19-2.12-2.9-1.41-.71-3.24-1.37-5.48-1.98-2.24-.61-4.62-1.33-7.14-2.16-2.52-.83-4.9-1.93-7.14-3.32-2.24-1.38-4.07-3.22-5.48-5.52-1.41-2.3-2.12-5.2-2.12-8.7,0-4.42,1.07-8.24,3.22-11.46,2.15-3.22,5.22-5.71,9.21-7.46,3.99-1.75,8.69-2.62,14.09-2.62,3.62,0,7.17.48,10.64,1.43,3.47.95,6.25,2.23,8.33,3.82l-3.13,13.54c-3.13-1.29-5.94-2.22-8.43-2.81-2.49-.58-4.83-.88-7.04-.88-2.58,0-4.54.37-5.89,1.1-1.35.74-2.03,1.72-2.03,2.95s.71,2.12,2.12,2.85c1.41.74,3.22,1.44,5.43,2.12,2.21.68,4.57,1.44,7.09,2.3,2.52.86,4.88,2,7.09,3.41,2.21,1.41,4.02,3.25,5.43,5.53,1.41,2.27,2.12,5.13,2.12,8.56,0,7.12-2.32,12.62-6.95,16.48-4.64,3.87-11.07,5.8-19.29,5.8Z"/>
      </g>
      <g>
        <path class="cls-1" d="M66.01,80.33c-10.41-25.32-20.77-50.66-31.1-76.02-2.76-6.78-13.69-3.37-10.9,3.42,10.61,25.84,21.2,51.69,31.72,77.56,2.77,6.81,13.07,1.81,10.28-4.97h0Z"/>
        <path class="cls-1" d="M61.02,8.05c8.29,19.34,16.58,38.68,24.87,58.02,2.9,6.77,13.16,1.75,10.28-4.98-8.26-19.27-16.52-38.55-24.78-57.82-2.9-6.77-13.26-1.97-10.37,4.78h0Z"/>
        <path class="cls-1" d="M17.73,74.08c36.53-9.21,72.58-19.89,108.28-31.93,6.96-2.35,3.67-13.31-3.3-10.93-35.43,12.07-71.32,22.6-107.61,31.75-7.12,1.79-4.51,12.91,2.64,11.11h0Z"/>
        <path class="cls-1" d="M6.66,44.7c34.01-5.23,66.51-14.9,97.94-28.83,6.73-2.98,1.29-13.06-5.38-10.07-30.34,13.59-61.88,22.68-94.73,27.69-7.28,1.11-5.08,12.33,2.17,11.21h0Z"/>
      </g>
    </g>
  </g>
</svg>