<?xml version="1.0" encoding="UTF-8"?>
<svg id="Capa_2" data-name="Capa 2" xmlns="http://www.w3.org/2000/svg" viewBox="0 0 66.54 66.59">
  <defs>
    <style>
      .cls-1 {
        fill: #fff;
      }
    </style>
  </defs>
  <g id="Diseño">
    <path class="cls-1" d="M34.11,0l3.46.29c14.41,1.85,26.13,13.11,28.52,27.43,3.11,18.69-9.84,36.1-28.52,38.57l-3.55.29c-.55-.02-1.11.02-1.66,0-15.81-.64-29.27-11.99-31.88-27.72C-2.88,18.63,12.19.79,32.44,0h1.66ZM44.09,10.17c-4.3.28-9.66-.9-13.44,1.59-4.52,2.97-2.91,8.71-3.21,13.3h-5.09v8.14h5.27v23.21h9.62v-23.4h6.38l.55-7.95h-7.12v-4.76c0-.6.53-1.43,1.04-1.73.13-.08.84-.35.94-.35h4.99c.21-.13.05-.2.05-.23v-7.81Z"/>
  </g>
</svg>