<?xml version="1.0" encoding="UTF-8"?>
<svg id="Capa_2" data-name="Capa 2" xmlns="http://www.w3.org/2000/svg" viewBox="0 0 353.83 353.83">
  <defs>
    <style>
      .cls-1 {
        fill: #161a1d;
      }

      .cls-2 {
        fill: #fff;
      }
    </style>
  </defs>
  <g id="Diseño">
    <circle class="cls-1" cx="176.91" cy="176.91" r="176.91"/>
    <g>
      <path class="cls-2" d="M244.58,55.89v121.03c0,12.72-3.4,24.65-9.34,34.92-6.14,10.61-14.98,19.45-25.59,25.58-10.28,5.95-22.21,9.35-34.93,9.35s-24.66-3.4-34.92-9.34c-3.72-2.14-7.22-4.62-10.46-7.41-6.01-5.14-11.14-11.3-15.13-18.19-5.94-10.28-9.34-22.21-9.34-34.92s3.4-24.66,9.35-34.93h60.5c-19.28,0-34.92,15.64-34.92,34.93s15.64,34.92,34.92,34.92,34.93-15.64,34.93-34.92v-98.82c-10.93-3.87-22.69-5.98-34.93-5.98s-24,2.11-34.92,5.96c-10.12,3.57-19.53,8.66-27.95,15-2.42,1.8-4.74,3.72-6.99,5.73-2.9,2.59-5.64,5.34-8.23,8.23-3.36,3.75-6.46,7.74-9.23,11.94-4.74,7.1-8.61,14.81-11.5,22.99h-36.5c1.61-6.24,3.64-12.31,6.05-18.18,2.38-5.79,5.14-11.39,8.24-16.76,2.81-4.86,5.89-9.51,9.24-13.96,2.21-2.96,4.53-5.8,6.99-8.56,3.86-4.4,8-8.54,12.38-12.4,1.66-1.48,3.36-2.91,5.09-4.29,5.5-4.41,11.32-8.4,17.46-11.95,10.81-6.26,22.54-11.1,34.93-14.29,11.16-2.87,22.87-4.4,34.92-4.4s23.77,1.53,34.93,4.4c12.4,3.19,24.13,8.05,34.93,14.29Z"/>
      <path class="cls-2" d="M314.43,141.99v34.93c0,12.06-1.53,23.76-4.4,34.92-3.19,12.4-8.03,24.13-14.29,34.93-4.67,8.07-10.12,15.61-16.24,22.55-3.86,4.39-7.99,8.51-12.37,12.37-6.94,6.12-14.48,11.57-22.55,16.24-10.81,6.25-22.54,11.1-34.93,14.29-11.16,2.87-22.87,4.4-34.93,4.4v-34.93c12.25,0,24-2.11,34.93-5.98,13.03-4.6,24.85-11.69,34.93-20.71,2.9-2.59,5.64-5.34,8.23-8.23,9.03-10.08,16.13-21.91,20.73-34.93,3.86-10.92,5.96-22.67,5.96-34.92s-2.11-24.02-5.98-34.93h40.91Z"/>
    </g>
  </g>
</svg>