<?xml version="1.0" encoding="UTF-8"?>
<svg id="Capa_2" data-name="Capa 2" xmlns="http://www.w3.org/2000/svg" viewBox="0 0 66.54 66.39">
  <defs>
    <style>
      .cls-1 {
        fill: #fff;
      }
    </style>
  </defs>
  <g id="Diseño">
    <g>
      <path class="cls-1" d="M30.8.07c26.73-1.66,44.75,26.86,31.04,50.09s-45.83,21.48-57.95-1.3C-7.33,27.78,6.99,1.55,30.8.07ZM24.24,14.58c-5.01.51-9.25,5.01-9.69,9.99.32,5.63-.41,11.71,0,17.29.37,5.02,4.89,9.61,9.91,10.02,5.62.46,11.85-.34,17.53,0,5.15-.58,9.32-4.75,9.9-9.9-.95-9.59,3.97-24.25-8.93-27.27-5.93.11-12.87-.72-18.72-.13Z"/>
      <path class="cls-1" d="M24.99,18.24c5.18-.53,11.09.3,16.35-.02,3.65.36,6.59,3.32,6.89,6.99.42,5.14-.31,10.82,0,16.02-.34,3.74-3.27,6.65-7,7-5.2-.31-10.88.42-16.02,0-3.75-.31-6.73-3.38-7.01-7.12-.37-5.09.29-10.64,0-15.78.27-3.66,3.12-6.71,6.79-7.09ZM44.66,21.65c-2.16-2.02-5.13,1.2-3.1,3.16s5.14-1.25,3.1-3.16ZM32.06,23.91c-3.85.43-7.32,4.15-7.67,7.98-.84,9.34,10.76,13.91,16.32,6.61,5.05-6.63-.4-15.52-8.66-14.59Z"/>
      <path class="cls-1" d="M32.69,27.19c7.98-.96,8.91,10.99,1.22,11.57-7.43.56-8.52-10.69-1.22-11.57Z"/>
    </g>
  </g>
</svg>