<?xml version="1.0" encoding="UTF-8"?>
<svg id="Capa_2" data-name="Capa 2" xmlns="http://www.w3.org/2000/svg" viewBox="0 0 154.73 54.57">
  <defs>
    <style>
      .cls-1 {
        fill: #fff;
      }
    </style>
  </defs>
  <g id="Diseño">
    <g>
      <g>
        <g>
          <path class="cls-1" d="M85.64,25.73c0,3.65-1.92,5-5.42,5h-9.19c-3.5,0-5.39-1.35-5.39-5v-5.81h7.92v3.77h4.15V0h7.92v25.73Z"/>
          <path class="cls-1" d="M109.65,25.89c0,3.42-1.77,4.85-5.27,4.85h-10.35c-3.31,0-5.27-1.35-5.27-4.85V4.89c0-3.27,1.77-4.89,5.27-4.89h10.35c3.35,0,5.27,1.38,5.27,4.89v21ZM101.72,23.7V7.08h-5.04v16.62h5.04Z"/>
          <path class="cls-1" d="M133.65,18.23c0,3.65-1.92,4.96-5.42,4.96h-7.54v7.54h-7.92V0h15.46c3.5,0,5.42,1.38,5.42,5.04v13.19ZM125.73,16.19V7.04h-5.04v9.16h5.04Z"/>
          <path class="cls-1" d="M154.73,25.89c0,3.54-1.92,4.85-5.39,4.85h-12.96v-7.04h10.42v-4.92h-5.08c-4.35,0-5.35-2.12-5.35-4.81V5.04c0-3.65,1.88-5.04,5.39-5.04h12.19v7.04h-9.66v4.69h5c3.69,0,5.42,1.54,5.42,5.23v8.92Z"/>
        </g>
        <g>
          <path class="cls-1" d="M82.19,53.38h-9.27v-15.97h9.27v3.66h-5.16v2.44h5.16v3.64h-5.16v2.58h5.16v3.66Z"/>
          <path class="cls-1" d="M93.14,50.87c0,1.84-1,2.52-2.8,2.52h-6.73v-3.66h5.42v-2.56h-2.64c-2.26,0-2.78-1.1-2.78-2.5v-4.64c0-1.9.98-2.62,2.8-2.62h6.34v3.66h-5.02v2.44h2.6c1.92,0,2.82.8,2.82,2.72v4.64Z"/>
          <path class="cls-1" d="M104.75,41.07h-3.42v12.31h-4.12v-12.31h-3.42v-3.66h10.95v3.66Z"/>
          <path class="cls-1" d="M116.74,50.79c0,1.9-1,2.6-2.82,2.6h-5.24c-1.82,0-2.8-.7-2.8-2.6v-13.37h4.12v12.31h2.62v-12.31h4.12v13.37Z"/>
          <path class="cls-1" d="M129.23,50.87c0,1.72-.98,2.52-2.76,2.52h-8.11v-15.97h8.11c1.7,0,2.76.7,2.76,2.54v10.91ZM125.11,49.73v-8.63h-2.64v8.63h2.64Z"/>
          <path class="cls-1" d="M134.97,53.38h-4.12v-15.97h4.12v15.97Z"/>
          <path class="cls-1" d="M147.44,50.87c0,1.78-.92,2.52-2.74,2.52h-5.38c-1.72,0-2.74-.7-2.74-2.52v-10.91c0-1.7.92-2.54,2.74-2.54h5.38c1.74,0,2.74.72,2.74,2.54v10.91ZM143.32,49.73v-8.63h-2.62v8.63h2.62Z"/>
        </g>
      </g>
      <g>
        <path class="cls-1" d="M40.07,3.65v23.64c0,2.48-.66,4.81-1.82,6.82-1.2,2.07-2.93,3.8-5,5-2.01,1.16-4.34,1.83-6.82,1.83s-4.82-.66-6.82-1.82c-.73-.42-1.41-.9-2.04-1.45-1.17-1-2.18-2.21-2.96-3.55-1.16-2.01-1.82-4.34-1.82-6.82s.66-4.82,1.83-6.82h11.82c-3.77,0-6.82,3.05-6.82,6.82s3.05,6.82,6.82,6.82,6.82-3.05,6.82-6.82V7.99c-2.13-.76-4.43-1.17-6.82-1.17s-4.69.41-6.82,1.16c-1.98.7-3.81,1.69-5.46,2.93-.47.35-.93.73-1.36,1.12-.57.51-1.1,1.04-1.61,1.61-.66.73-1.26,1.51-1.8,2.33-.93,1.39-1.68,2.89-2.25,4.49H0c.32-1.22.71-2.4,1.18-3.55.46-1.13,1-2.22,1.61-3.27.55-.95,1.15-1.86,1.8-2.73.43-.58.89-1.13,1.36-1.67.75-.86,1.56-1.67,2.42-2.42.32-.29.66-.57.99-.84,1.07-.86,2.21-1.64,3.41-2.33,2.11-1.22,4.4-2.17,6.82-2.79,2.18-.56,4.47-.86,6.82-.86s4.64.3,6.82.86c2.42.62,4.71,1.57,6.82,2.79Z"/>
        <path class="cls-1" d="M53.72,20.47v6.82c0,2.36-.3,4.64-.86,6.82-.62,2.42-1.57,4.71-2.79,6.82-.91,1.58-1.98,3.05-3.17,4.4-.75.86-1.56,1.66-2.42,2.42-1.35,1.2-2.83,2.26-4.4,3.17-2.11,1.22-4.4,2.17-6.82,2.79-2.18.56-4.47.86-6.82.86v-6.82c2.39,0,4.69-.41,6.82-1.17,2.54-.9,4.85-2.28,6.82-4.05.57-.51,1.1-1.04,1.61-1.61,1.76-1.97,3.15-4.28,4.05-6.82.75-2.13,1.16-4.43,1.16-6.82s-.41-4.69-1.17-6.82h7.99Z"/>
      </g>
    </g>
  </g>
</svg>